<svg id="Icon" xmlns="http://www.w3.org/2000/svg" width="76" height="76" viewBox="0 0 76 76">
  <title>_TK_Relaunch_Icons_illustrativ_2px_Schutz</title>
  <rect x="25.9988" y="25.9988" width="48" height="48" style="fill: #f9f6c7"/>
  <path d="M49.1,11.21a0.74949,0.74949,0,0,0-.53-0.22H2.74a0.74274,0.74274,0,0,0-.75.75L1.9,40.53a0.74027,0.74027,0,0,0,.21.53,0.79091,0.79091,0,0,0,.54.22H6.56v6.59a0.74089,0.74089,0,0,0,.46.69,0.71755,0.71755,0,0,0,.29.06,0.73361,0.73361,0,0,0,.52-0.21l7.26-7.13H48.48a0.7427,0.7427,0,0,0,.75-0.75l0.09-28.79A0.71,0.71,0,0,0,49.1,11.21ZM47.74,39.78H14.85a0.7713,0.7713,0,0,0-.42.13,0.01986,0.01986,0,0,1-.02.01,0.77544,0.77544,0,0,0-.24.16l-6.11,6V40.62a0.646,0.646,0,0,0-.03-0.2L8,40.33a0.72952,0.72952,0,0,0-.71-0.55H3.4L3.48,12.49H47.82Z" style="fill: #727272"/>
  <path d="M54.56836,33.12891H52.875a0.75,0.75,0,0,1,0-1.5h0.94336V4.42578H9.47949v2.749a0.75,0.75,0,0,1-1.5,0v-3.499a0.75019,0.75019,0,0,1,.75-0.75H54.56836a0.75019,0.75019,0,0,1,.75.75V32.37891A0.75019,0.75019,0,0,1,54.56836,33.12891Z" style="fill: #727272"/>
  <rect x="14.9994" y="24" width="4" height="4" style="fill: #727272"/>
  <rect x="23.9914" y="24" width="4" height="4" style="fill: #727272"/>
  <rect x="32.9969" y="24" width="4" height="4" style="fill: #727272"/>
</svg>
