<svg id="Icon" xmlns="http://www.w3.org/2000/svg" width="76" height="76" viewBox="0 0 76 76">
  <title>_TK_Relaunch_Icons_illustrativ_2px_Schutz</title>
  <rect x="25.9988" y="25.9988" width="48" height="48" style="fill: #f9f6c7"/>
  <g>
    <path d="M57.39,11.84a0.37141,0.37141,0,0,0-.09-0.19,0.43551,0.43551,0,0,0-.09-0.11,1.06788,1.06788,0,0,0-.11-0.09,0.53945,0.53945,0,0,0-.13-0.07,0.71783,0.71783,0,0,0-.29-0.06H13.1a0.697,0.697,0,0,0-.42.13,1.06788,1.06788,0,0,0-.11.09,0.43551,0.43551,0,0,0-.09.11,0.81815,0.81815,0,0,0-.07.13,0.71632,0.71632,0,0,0-.06.29v13.6a0.75,0.75,0,0,0,1.5,0V13.62l20.39,16.1a0.80123,0.80123,0,0,0,.46.16,0.75493,0.75493,0,0,0,.46-0.16L55.93,13.6V37.85H27.58a0.75,0.75,0,0,0,0,1.5h29.1a0.74893,0.74893,0,0,0,.75-0.75V12.07A0.61909,0.61909,0,0,0,57.39,11.84ZM34.71,28.17L15.26,12.82H54.49Z" style="fill: #727272"/>
    <g>
      <path d="M12.57,11.54a0.43551,0.43551,0,0,0-.09.11c0.00995-.02.02-0.03,0.03-0.05Z" style="fill: #727272"/>
      <path d="M57.3,11.65a0.43551,0.43551,0,0,0-.09-0.11,0.23487,0.23487,0,0,1,.07.07A0.07575,0.07575,0,0,1,57.3,11.65Z" style="fill: #727272"/>
    </g>
    <path d="M13.35,29.47a10.41,10.41,0,1,0,0,20.82,10.28838,10.28838,0,0,0,5.88-1.81,0.74476,0.74476,0,1,0-.84-1.23,8.92473,8.92473,0,1,1,3.87-7.37v0.84a2.19,2.19,0,0,1-4.38,0V39.88a4.53,4.53,0,1,0-4.53,4.53,4.48065,4.48065,0,0,0,3.58-1.77,3.6829,3.6829,0,0,0,6.83-1.92V39.88A10.42193,10.42193,0,0,0,13.35,29.47Zm0,13.44a3.03,3.03,0,1,1,3.03-3.03A3.03437,3.03437,0,0,1,13.35,42.91Z" style="fill: #727272"/>
  </g>
</svg>
