<?xml version="1.0"?>
<svg xmlns="http://www.w3.org/2000/svg" xmlns:xlink="http://www.w3.org/1999/xlink">
    <symbol id="icon" viewBox="0 0 76 76">
			<rect x="26.11" y="26.39" width="48" height="48" fill="currentColor"/>
			<path d="M62.31,23.1l0,0v-.64a.75.75,0,0,0-.75-.75H24.13a.75.75,0,0,0-.75.75v15.1a.75.75,0,0,0,1.5,0V23.9L42.61,36.82a.75.75,0,0,0,.88,0l17.3-12.61V43.07H34.73a.75.75,0,0,0,0,1.5H61.54a.75.75,0,0,0,.75-.75V23.12ZM43,35.28,26.46,23.19H59.64Z"/>
			<path d="M29.31,42.56a3.21,3.21,0,0,0-2.13-1.23l-.37,0a3.12,3.12,0,0,0-2,.69L22.5,43.88a.86.86,0,0,1-.51.18.87.87,0,0,1-.5-.16,20.65,20.65,0,0,1-4.89-5.55,19.4,19.4,0,0,1-2.28-6.88.81.81,0,0,1,.53-.89l2.78-1.1a3.08,3.08,0,0,0,1.75-1.7,3.15,3.15,0,0,0,0-2.47l-4.19-9.84a3.12,3.12,0,0,0-1.9-1.77,3.23,3.23,0,0,0-2.58.26L4.77,17.39c-5,2.88-1.55,14.91,4.44,25.3,5.24,9,12.5,17,17.58,17a4.16,4.16,0,0,0,1.85-.41v0l6.16-3.55a3.15,3.15,0,0,0,1.51-2.13,3.11,3.11,0,0,0-.57-2.55Zm5.53,10.81a1.64,1.64,0,0,1-.79,1.1l-5.91,3.41L28,58a2.65,2.65,0,0,1-1.2.26c-4,0-10.82-6.85-16.28-16.28a55,55,0,0,1-6.18-15C3.81,24.4,3.25,20,5.52,18.69l5.94-3.43a1.64,1.64,0,0,1,2.35.79L18,25.9a1.64,1.64,0,0,1,0,1.29,1.61,1.61,0,0,1-.93.9l-2.76,1.09a2.32,2.32,0,0,0-1.49,2.51A21,21,0,0,0,15.3,39.1a22,22,0,0,0,5.25,6l0,0,0,0a2.36,2.36,0,0,0,1.37.44A2.39,2.39,0,0,0,23.44,45l2.34-1.87a1.62,1.62,0,0,1,1-.36H27a1.71,1.71,0,0,1,1.09.64L34.55,52A1.64,1.64,0,0,1,34.84,53.38Z"/>
    </symbol>
    <use xlink:href="#icon" />
</svg>