<svg id="Icon" xmlns="http://www.w3.org/2000/svg" width="76" height="76" viewBox="0 0 76 76">
  <title>_TK_Relaunch_Icons_illustrativ_2px_Schutz</title>
  <rect x="25.9988" y="25.9988" width="48" height="48" style="fill: #f9f6c7"/>
  <path d="M14.93838,3.4976a2.52024,2.52024,0,0,1,2.38889,1.58814l5.443,12.795a2.57494,2.57494,0,0,1,.00009,2.02644,2.50539,2.50539,0,0,1-1.45119,1.40335l-3.58883,1.42383a2.56473,2.56473,0,0,0-1.64619,2.77409,26.77079,26.77079,0,0,0,3.15232,9.48377,28.16818,28.16818,0,0,0,6.714,7.62447l0.0345,0.02755,0.03607,0.02546a2.57351,2.57351,0,0,0,3.11839-.07807L32.1801,40.1567a2.55651,2.55651,0,0,1,1.62821-.5667c0.10352,0,.20081.007,0.32378,0.01589a2.67408,2.67408,0,0,1,1.72578,1.01051L44.21974,51.718a2.652,2.652,0,0,1-.77716,3.85948L35.74666,60.0126l-0.20987.10167a3.92969,3.92969,0,0,1-1.75222.38333c-5.39228,0-14.25095-8.79238-21.54132-21.37912C8.30956,32.29883,5.365,25.13543,4.16469,19.465,3.449,16.08428,2.72543,10.13823,5.92171,8.29844l7.7129-4.45475a2.58636,2.58636,0,0,1,1.30377-.34609m0-1.5a4.08852,4.08852,0,0,0-2.05054.5452L5.1715,6.99953c-6.50729,3.74561-2.015,19.36788,5.77242,32.86842C17.74754,51.61433,27.18264,61.9976,33.78458,61.9976a5.40906,5.40906,0,0,0,2.4062-.5334v0.02373l8.00079-4.61084a4.096,4.096,0,0,0,1.96764-2.76177,4.04558,4.04558,0,0,0-.74674-3.307L37.056,39.71393a4.16681,4.16681,0,0,0-2.76156-1.60021C34.12835,38.10186,33.97441,38.09,33.80831,38.09a4.05176,4.05176,0,0,0-2.572.90085l-3.03444,2.42992a1.10919,1.10919,0,0,1-.66369.237,1.12568,1.12568,0,0,1-.65183-0.21334A26.82711,26.82711,0,0,1,20.533,34.23777a25.208,25.208,0,0,1-2.96325-8.93716,1.05053,1.05053,0,0,1,.68756-1.16157l3.61509-1.43424a4.0027,4.0027,0,0,0,2.27583-2.20464,4.08564,4.08564,0,0,0,0-3.2122L18.70757,4.49857a4.04784,4.04784,0,0,0-2.46538-2.29948,4.101,4.101,0,0,0-1.30381-.20149h0Z" style="fill: #727272"/>
</svg>
